<svg width="600" height="600" viewBox="0 0 600 600" xmlns="http://www.w3.org/2000/svg">
  <!-- Background circle -->
  <circle cx="300" cy="300" r="280" fill="#f3f4f6" />
  
  <!-- Mobile phone outline -->
  <rect x="200" y="100" width="200" height="400" rx="20" fill="white" stroke="#f97316" stroke-width="8" />
  
  <!-- Screen elements -->
  <rect x="220" y="130" width="160" height="40" rx="5" fill="#d1d5db" />
  
  <!-- Food item 1 -->
  <rect x="220" y="190" width="160" height="60" rx="8" fill="#f9fafb" stroke="#d1d5db" stroke-width="2" />
  <circle cx="240" cy="220" r="15" fill="#f97316" />
  <rect x="265" y="205" width="100" height="10" rx="2" fill="#d1d5db" />
  <rect x="265" y="225" width="80" height="10" rx="2" fill="#d1d5db" />
  
  <!-- Food item 2 -->
  <rect x="220" y="270" width="160" height="60" rx="8" fill="#f9fafb" stroke="#d1d5db" stroke-width="2" />
  <circle cx="240" cy="300" r="15" fill="#fb923c" />
  <rect x="265" y="285" width="100" height="10" rx="2" fill="#d1d5db" />
  <rect x="265" y="305" width="80" height="10" rx="2" fill="#d1d5db" />
  
  <!-- Order button -->
  <rect x="220" y="350" width="160" height="40" rx="8" fill="#f97316" />
  <rect x="260" y="365" width="80" height="10" rx="2" fill="white" />
  
  <!-- Home button -->
  <circle cx="300" cy="420" r="15" fill="#e5e7eb" />
</svg>
