<svg width="600" height="600" viewBox="0 0 600 600" xmlns="http://www.w3.org/2000/svg">
  <!-- Background circle -->
  <circle cx="300" cy="300" r="280" fill="#f3f4f6" />
  
  <!-- Menu / Calendar illustration -->
  <rect x="150" y="120" width="300" height="300" rx="15" fill="white" stroke="#f97316" stroke-width="8" />
  
  <!-- Date headers -->
  <rect x="180" y="150" width="60" height="30" rx="5" fill="#f97316" />
  <rect x="250" y="150" width="60" height="30" rx="5" fill="#f97316" />
  <rect x="320" y="150" width="60" height="30" rx="5" fill="#f97316" />
  
  <!-- Menu items -->
  <rect x="180" y="210" width="240" height="30" rx="5" fill="#d1d5db" />
  <rect x="190" y="230" width="40" height="40" rx="5" fill="#fb923c" />
  <rect x="240" y="230" width="150" height="60" rx="5" fill="#ffedd5" />
  <rect x="180" y="270" width="240" height="30" rx="5" fill="#d1d5db" />
  <rect x="190" y="300" width="40" height="40" rx="5" fill="#fb923c" />
  <rect x="240" y="300" width="150" height="60" rx="5" fill="#ffedd5" />
  <rect x="180" y="330" width="240" height="30" rx="5" fill="#d1d5db" />
  
  <!-- Checkmark for selection -->
  <circle cx="420" cy="225" r="25" fill="#10b981" />
  <path d="M410,225 L418,233 L430,217" stroke="white" stroke-width="4" fill="none" stroke-linecap="round" stroke-linejoin="round" />
  <path d="M405,225 L420,240 L435,210" stroke="white" stroke-width="6" fill="none" stroke-linecap="round" stroke-linejoin="round" />
</svg>
